<svg width="14" height="19" viewBox="0 0 14 19" fill="none" xmlns="http://www.w3.org/2000/svg">
<path d="M11.08 1.58C9.94 0.560005 8.34 0 6.6 0C4.86 0 3.25999 0.560005 2.11999 1.58C0.73999 2.82 -4.88281e-06 4.68001 -4.88281e-06 6.98C-4.88281e-06 12 5.78001 17.9 6.04001 18.14C6.20001 18.3 6.4 18.38 6.6 18.38C6.8 18.38 7.02001 18.3 7.16001 18.14C7.40001 17.9 13.2 12 13.2 6.98C13.18 4.68001 12.46 2.82 11.08 1.58ZM6.58 16.42C6.04 15.82 5.18001 14.82 4.34001 13.62C2.54001 11.06 1.58 8.78 1.58 7C1.58 2 5.4 1.6 6.58 1.6C11.22 1.6 11.58 5.74 11.58 7C11.58 10.52 8 14.86 6.58 16.42ZM6.58 3.46C4.82 3.46 3.4 4.92 3.4 6.7C3.4 8.48 4.82 9.94 6.58 9.94C8.34 9.94 9.76001 8.48 9.76001 6.7C9.76001 4.9 8.34 3.46 6.58 3.46ZM6.58 8.52C5.6 8.52 4.8 7.70001 4.8 6.68001C4.8 5.66001 5.6 4.84 6.58 4.84C7.56 4.84 8.36001 5.66001 8.36001 6.68001C8.36001 7.70001 7.56 8.52 6.58 8.52Z" fill="black"/>
</svg>
