<svg width="19" height="15" viewBox="0 0 19 15" fill="none" xmlns="http://www.w3.org/2000/svg">
<path d="M18.34 6.03999C18.34 6.01999 18.34 5.98001 18.34 5.96001C18.34 5.94001 18.34 5.91998 18.32 5.87998C18.32 5.85998 18.3 5.82 18.3 5.8C18.3 5.78 18.28 5.76002 18.28 5.72002C18.26 5.70002 18.26 5.68001 18.24 5.66001C18.22 5.64001 18.2 5.61998 18.2 5.57998L18.18 5.56001L13.88 0.3C13.72 0.12 13.5 0 13.26 0H5.08001C4.84 0 4.62 0.1 4.46 0.3L0.159998 5.56001L0.140002 5.57998C0.120002 5.59998 0.1 5.62001 0.1 5.66001C0.08 5.68001 0.0799976 5.70002 0.0599976 5.72002C0.0399976 5.74002 0.0400024 5.76 0.0400024 5.8C0.0400024 5.82 0.0200073 5.83998 0.0200073 5.87998C0.0200073 5.89998 0 5.92001 0 5.96001C0 5.98001 0 6.01999 0 6.03999C0 6.05999 0 6.05998 0 6.07998V13.24C0 14.12 0.72 14.82 1.6 14.82H16.74C17.62 14.82 18.34 14.12 18.34 13.24V6.07998C18.34 6.05998 18.34 6.03999 18.34 6.03999ZM5.42001 1.6H12.84L15.84 5.2H13.18C12.96 5.2 12.74 5.34 12.58 5.5L10.76 7.6H7.5L5.68001 5.5C5.52001 5.32 5.32001 5.2 5.08001 5.2H2.42001L5.42001 1.6ZM16.74 13.2H1.54V6.8H4.72001L6.46 8.8C6.66 9.04 6.96 9.2 7.28 9.2H11C11.32 9.2 11.6 9.02 11.82 8.8L13.56 6.8H16.74V13.2Z" fill="black"/>
</svg>
