<svg width="18" height="18" viewBox="0 0 18 18" fill="none" xmlns="http://www.w3.org/2000/svg">
<path d="M17.4991 2.30672C17.4791 2.28672 17.4791 2.28673 17.4591 2.26673L15.3191 0.386703C15.0191 0.106703 14.5991 -0.0332774 14.1591 0.00672258C13.7591 0.0467226 13.3991 0.206703 13.1191 0.486703C13.0991 0.506703 13.0791 0.526713 13.0591 0.546713L10.9391 3.20672C10.3791 3.80672 10.3991 4.72672 10.9791 5.30672C11.0191 5.34672 11.0591 5.38672 11.0991 5.40672L12.1791 6.12674C12.0991 6.50674 11.5391 7.58673 9.55911 9.56673C7.57911 11.5467 6.49911 12.1067 6.11911 12.1867L5.39911 11.1067C5.37911 11.0667 5.33911 11.0267 5.29911 10.9867C4.71911 10.4067 3.79911 10.4067 3.19911 10.9467L0.539114 13.0667C0.519114 13.0867 0.499116 13.1067 0.479116 13.1267C-0.120884 13.7267 -0.160884 14.7267 0.379116 15.3067L2.25911 17.4467C2.27911 17.4667 2.27911 17.4667 2.29911 17.4867C2.65911 17.8467 3.21911 17.9867 3.83911 17.9867C4.93911 17.9867 6.19911 17.5467 6.85911 17.2867C8.13911 16.7867 10.6391 15.5667 13.1191 13.0867C14.9591 11.2467 16.4391 9.02674 17.3191 6.82674C17.6991 5.82674 18.5391 3.34672 17.4991 2.30672ZM11.9791 11.9867C8.27912 15.6867 4.11911 16.7067 3.41911 16.3467L1.59911 14.2667L4.19911 12.2067L4.89911 13.2667C4.91911 13.2867 4.91911 13.3067 4.93911 13.3267C5.17911 13.6267 5.51911 13.7867 5.91911 13.8067C6.29911 13.8267 7.47911 13.8867 10.6591 10.7067C11.4391 9.92672 13.8391 7.52673 13.7591 5.96673C13.7391 5.56673 13.5591 5.2267 13.2791 4.9867C13.2591 4.9667 13.2391 4.94671 13.2191 4.94671L12.1591 4.24671L14.2191 1.64671L16.2991 3.46673C16.6991 4.12673 15.6791 8.2867 11.9791 11.9867Z" fill="black"/>
</svg>
